<svg width="19" height="19" viewBox="0 0 19 19" fill="none" xmlns="http://www.w3.org/2000/svg">
<path d="M18 16.6109L13.2513 11.8622C14.3925 10.4923 14.9615 8.7351 14.8401 6.95627C14.7187 5.17745 13.9161 3.51392 12.5994 2.31174C11.2827 1.10956 9.55321 0.461288 7.77071 0.50179C5.9882 0.542291 4.28994 1.26845 3.02919 2.52919C1.76845 3.78994 1.04229 5.4882 1.00179 7.27071C0.961288 9.05321 1.60956 10.7827 2.81174 12.0994C4.01392 13.4161 5.67745 14.2187 7.45627 14.3401C9.2351 14.4615 10.9923 13.8925 12.3622 12.7513L17.1109 17.5L18 16.6109ZM2.28008 7.43925C2.28008 6.31997 2.61198 5.22583 3.23382 4.29518C3.85566 3.36454 4.7395 2.63919 5.77358 2.21086C6.80766 1.78253 7.94553 1.67046 9.0433 1.88882C10.1411 2.10718 11.1494 2.64616 11.9409 3.43761C12.7323 4.22906 13.2713 5.23743 13.4897 6.3352C13.708 7.43297 13.596 8.57084 13.1676 9.60492C12.7393 10.639 12.014 11.5228 11.0833 12.1447C10.1527 12.7665 9.05853 13.0984 7.93925 13.0984C6.43886 13.0968 5.00039 12.5 3.93945 11.4391C2.87851 10.3781 2.28174 8.93965 2.28008 7.43925Z" fill="#979797" stroke="#5C24D3"/>
</svg>
